<?xml version="1.0" standalone="no"?>
<!DOCTYPE svg PUBLIC "-//W3C//DTD SVG 20010904//EN"
 "http://www.w3.org/TR/2001/REC-SVG-20010904/DTD/svg10.dtd">
<svg version="1.0" xmlns="http://www.w3.org/2000/svg"
 width="1280.000000pt" height="640.000000pt" viewBox="0 0 1280.000000 640.000000"
 preserveAspectRatio="xMidYMid meet">

<g transform="translate(0.000000,640.000000) scale(0.100000,-0.100000)"
fill="#000000" stroke="none">
<path d="M2305 5129 c-98 -13 -294 -62 -395 -99 -388 -142 -736 -426 -952
-778 -335 -545 -368 -1304 -80 -1873 230 -454 596 -775 1080 -948 133 -48 182
-52 209 -18 10 13 92 233 182 490 l164 466 -32 27 c-41 34 -61 74 -61 119 0
108 113 189 206 150 84 -35 125 -107 105 -182 -10 -37 -45 -83 -77 -101 -14
-8 5 -69 155 -488 98 -275 178 -484 188 -492 28 -20 81 -14 192 24 264 90 494
231 700 429 541 521 724 1290 481 2018 -93 277 -228 495 -440 708 -173 175
-302 269 -502 370 -169 85 -367 147 -559 174 -115 16 -447 18 -564 4z m546
-280 c731 -122 1276 -715 1344 -1461 l7 -78 -143 0 c-79 0 -161 5 -181 10 -22
7 -65 36 -105 73 -90 82 -120 103 -170 116 -92 25 -190 -33 -252 -148 -17 -33
-54 -124 -81 -201 -62 -175 -84 -220 -110 -220 -40 0 -70 77 -136 350 -160
662 -228 860 -335 968 -56 57 -97 69 -155 47 -121 -46 -212 -244 -335 -725
-95 -370 -118 -440 -154 -454 -42 -16 -74 37 -139 229 -58 168 -117 284 -170
333 -39 36 -52 42 -90 42 -65 0 -119 -54 -202 -205 -75 -136 -118 -187 -173
-204 -21 -6 -101 -11 -177 -11 l-140 0 7 88 c24 301 138 602 317 835 211 278
535 496 864 583 220 58 487 71 709 33z m-246 -787 c57 -40 112 -208 239 -732
71 -289 98 -382 136 -463 80 -167 175 -208 270 -118 45 43 109 171 163 326 51
146 81 209 112 233 50 40 76 30 182 -70 97 -91 117 -98 321 -98 l173 0 -6 -57
c-34 -301 -128 -556 -292 -792 -76 -108 -253 -291 -357 -368 -131 -97 -350
-212 -434 -229 -29 -6 -30 -5 -60 78 -17 45 -47 124 -66 173 -19 50 -52 135
-73 190 l-39 101 43 62 c114 167 91 378 -58 517 -261 244 -689 61 -689 -295 0
-87 21 -153 70 -224 l41 -58 -66 -175 c-36 -96 -70 -184 -75 -196 -5 -12 -23
-59 -40 -104 l-31 -82 -32 11 c-64 22 -254 116 -327 163 -182 117 -364 295
-485 475 -143 214 -255 531 -259 734 l-1 71 185 5 c171 5 188 7 222 28 54 33
110 101 153 185 68 130 87 157 116 157 34 0 63 -54 128 -236 63 -180 105 -268
153 -320 89 -96 177 -81 258 45 51 81 87 189 170 511 91 355 134 478 188 543
15 17 49 22 67 9z"/>
<path d="M8409 4481 c-59 -11 -139 -52 -188 -97 -118 -105 -127 -297 -20 -418
44 -50 82 -68 249 -115 166 -47 206 -70 221 -124 20 -75 -22 -139 -102 -152
-112 -19 -203 23 -228 105 l-12 41 -77 -6 c-42 -3 -92 -8 -111 -11 l-34 -5 6
-51 c9 -74 60 -154 127 -200 71 -48 151 -68 270 -69 184 0 298 61 371 201 19
37 23 61 24 135 0 82 -3 95 -31 145 -38 68 -101 113 -199 141 -238 70 -264 79
-289 110 -38 44 -35 90 8 137 33 36 37 37 104 37 59 0 73 -4 104 -27 21 -16
42 -43 48 -64 11 -34 14 -35 49 -30 20 3 66 8 104 12 77 7 79 11 52 100 -21
72 -73 127 -158 169 -61 30 -85 36 -157 40 -47 2 -106 0 -131 -4z"/>
<path d="M9470 4476 c-36 -6 -100 -28 -144 -49 -192 -91 -305 -292 -294 -520
11 -206 101 -364 260 -458 156 -91 394 -96 551 -11 124 66 232 205 263 337 21
89 21 230 0 319 -47 197 -222 353 -433 385 -86 13 -118 13 -203 -3z m235 -224
c71 -34 126 -91 162 -170 37 -81 38 -200 3 -292 -34 -92 -114 -172 -195 -196
-69 -20 -163 -15 -217 10 -173 83 -247 320 -156 504 74 148 256 213 403 144z"/>
<path d="M5109 4443 c-11 -28 -42 -120 -162 -473 -36 -107 -95 -280 -131 -384
-36 -103 -66 -190 -66 -192 0 -2 51 -4 113 -4 l114 0 35 108 36 107 211 3
c165 2 211 0 211 -10 0 -7 14 -57 32 -110 l32 -98 116 0 117 0 -68 203 c-38
111 -119 353 -182 537 l-113 335 -142 3 -142 3 -11 -28z m185 -330 c20 -65 50
-156 67 -203 16 -47 29 -91 29 -98 0 -9 -36 -12 -141 -12 -130 0 -141 1 -134
18 29 74 125 376 125 392 0 47 20 12 54 -97z"/>
<path d="M5740 4460 c1 -8 50 -229 147 -660 19 -85 47 -211 62 -280 l28 -125
145 -3 145 -3 76 309 c42 170 77 314 77 320 0 6 5 23 11 39 11 27 12 26 29
-42 34 -135 121 -471 142 -548 l20 -78 146 3 145 3 18 80 c10 44 35 152 54
240 20 88 47 210 60 272 14 62 31 138 39 170 8 32 27 114 41 183 14 69 25 125
25 125 0 0 -51 -1 -112 -2 l-113 -2 -17 -78 c-23 -101 -81 -374 -114 -533 -31
-155 -33 -160 -44 -140 -4 8 -24 83 -44 165 -43 181 -100 410 -119 485 -8 30
-17 66 -21 80 -5 25 -6 25 -117 25 l-113 0 -38 -155 c-48 -191 -87 -348 -124
-502 -16 -65 -31 -118 -35 -118 -7 0 -20 53 -64 265 -87 412 -107 500 -110
504 -6 5 -225 7 -225 1z"/>
<path d="M7314 4461 c-2 -3 -4 -245 -4 -538 l1 -533 335 0 334 0 0 110 0 110
-220 0 -221 0 3 113 3 112 190 2 190 2 3 100 3 101 -196 0 -195 0 0 105 0 105
209 0 c116 0 212 4 215 8 3 4 6 52 7 105 l2 98 -327 2 c-180 1 -330 0 -332 -2z"/>
<path d="M10294 4461 c-2 -2 -4 -244 -4 -538 l0 -533 110 0 110 0 0 365 c0
340 6 421 25 333 4 -18 16 -51 26 -73 17 -37 40 -95 154 -392 25 -65 56 -143
69 -173 l23 -55 63 0 64 0 23 60 c41 104 85 217 114 300 16 44 34 89 39 100
20 43 100 255 100 265 0 5 5 10 10 10 6 0 10 -130 10 -370 l0 -371 105 3 c58
2 105 6 105 11 0 4 0 244 0 535 l0 527 -154 0 -154 0 -38 -105 c-50 -141 -102
-287 -160 -453 -27 -76 -53 -139 -58 -140 -5 -1 -31 61 -58 138 -26 77 -53
149 -58 160 -6 11 -23 58 -39 105 -66 197 -94 276 -102 284 -8 8 -316 15 -325
7z"/>
<path d="M11684 4461 c-2 -2 -4 -244 -4 -538 l0 -533 335 0 335 0 0 110 0 110
-219 0 -220 0 -3 108 c-2 59 0 111 3 115 3 4 92 7 197 5 l192 -3 0 102 0 103
-196 2 -195 3 -3 103 -2 102 211 0 212 0 7 77 c3 42 6 90 6 107 l0 31 -326 0
c-179 0 -328 -2 -330 -4z"/>
<path d="M6203 3095 c-204 -44 -353 -219 -383 -449 -35 -263 68 -495 264 -591
187 -92 448 -60 580 71 46 45 94 132 102 186 l6 35 -68 6 c-38 4 -90 7 -117 7
-46 0 -48 -1 -63 -40 -25 -62 -89 -102 -173 -108 -90 -6 -139 10 -200 64 -144
129 -143 442 2 569 59 51 114 69 197 63 79 -6 135 -43 170 -113 l25 -50 109 9
108 9 -5 32 c-3 18 -18 59 -34 92 -83 172 -295 257 -520 208z"/>
<path d="M7310 3099 c-86 -14 -194 -72 -264 -143 -73 -74 -110 -138 -136 -242
-37 -145 -18 -325 47 -447 43 -80 135 -164 228 -209 312 -149 685 15 760 335
19 80 19 257 0 329 -21 83 -78 178 -143 241 -127 120 -297 167 -492 136z m242
-219 c66 -33 117 -88 151 -160 28 -58 31 -75 31 -160 0 -77 -4 -106 -23 -154
-30 -75 -84 -134 -156 -170 -50 -26 -62 -28 -138 -24 -91 5 -126 19 -188 75
-121 110 -145 333 -51 476 42 64 103 113 165 133 58 19 156 12 209 -16z"/>
<path d="M9420 3096 c-104 -22 -201 -100 -242 -193 -16 -37 -19 -62 -16 -132
3 -77 7 -94 33 -136 45 -72 104 -110 221 -140 216 -57 284 -97 284 -170 0 -51
-16 -83 -52 -105 -28 -18 -46 -20 -113 -18 -95 4 -134 26 -162 95 -20 49 -19
48 -156 37 -75 -7 -77 -8 -77 -34 0 -97 74 -200 180 -252 114 -55 311 -58 420
-5 57 27 126 91 150 138 31 60 44 155 31 219 -28 135 -93 188 -298 245 -210
58 -233 74 -233 154 0 31 7 49 29 73 28 32 32 33 104 33 66 0 79 -3 102 -25
15 -14 34 -40 41 -57 16 -37 15 -37 137 -22 l89 12 -6 41 c-8 51 -61 140 -101
170 -99 76 -231 102 -365 72z"/>
<path d="M11734 3095 c-89 -19 -160 -59 -229 -129 -75 -75 -121 -164 -140
-272 -49 -275 43 -520 237 -625 76 -41 92 -46 187 -60 159 -23 324 26 418 123
43 44 88 128 99 186 6 30 5 32 -22 33 -16 0 -69 4 -117 7 l-88 7 -20 -42 c-37
-77 -143 -126 -236 -108 -55 10 -126 49 -161 89 -44 50 -77 161 -77 256 1 144
57 259 155 314 122 68 286 23 325 -89 7 -22 19 -39 27 -38 7 1 57 4 111 8 l98
7 -7 31 c-10 50 -58 149 -88 185 -38 44 -148 104 -221 119 -76 16 -173 15
-251 -2z"/>
<path d="M5118 3008 c-14 -46 -69 -209 -122 -363 -53 -154 -122 -358 -155
-452 l-59 -173 117 0 117 0 30 103 29 102 206 3 206 2 16 -42 c9 -24 24 -71
33 -105 l17 -63 120 0 c109 0 119 1 112 18 -4 9 -26 73 -49 142 -196 574 -252
737 -277 818 l-30 92 -143 0 -142 0 -26 -82z m198 -245 c14 -49 44 -141 65
-207 21 -65 39 -122 39 -127 0 -5 -61 -9 -136 -9 l-136 0 7 33 c4 17 22 77 40
132 18 55 43 134 55 175 22 76 28 90 35 90 3 0 16 -39 31 -87z"/>
<path d="M8122 2693 l3 -398 25 -59 c54 -128 166 -207 318 -225 229 -28 406
56 479 228 l28 66 3 393 3 392 -110 0 -110 0 -3 -367 c-3 -358 -4 -369 -25
-413 -13 -26 -39 -56 -60 -70 -33 -22 -49 -25 -125 -25 -80 0 -89 2 -129 30
-76 53 -78 65 -78 483 l-1 362 -110 0 -111 0 3 -397z"/>
<path d="M10020 2985 l0 -104 148 -3 147 -3 0 -428 0 -427 107 0 108 0 2 428
3 427 143 3 142 3 0 104 0 105 -400 0 -400 0 0 -105z"/>
<path d="M10970 2555 l0 -535 110 0 110 0 0 535 0 535 -110 0 -110 0 0 -535z"/>
</g>
</svg>
